Coordinates
version=1
nRows=9
nColumns=36
inDegrees=yes

Units are S.I. units (second, meters, Newtons, ...)
If the header above contains a line with 'inDegrees', this indicates whether rotational values are in degrees (yes) or radians (no).

endheader
time	pelvis_tilt	pelvis_list	pelvis_rotation	pelvis_tx	pelvis_ty	pelvis_tz	hip_flexion_r	hip_adduction_r	hip_rotation_r	knee_angle_r	knee_angle_r_beta	ankle_angle_r	subtalar_angle_r	mtp_angle_r	hip_flexion_l	hip_adduction_l	hip_rotation_l	knee_angle_l	knee_angle_l_beta	ankle_angle_l	subtalar_angle_l	mtp_angle_l	lumbar_extension	lumbar_bending	lumbar_rotation	arm_flex_r	arm_add_r	arm_rot_r	elbow_flex_r	pro_sup_r	arm_flex_l	arm_add_l	arm_rot_l	elbow_flex_l	pro_sup_l
      3.36000000	    -24.79188054	      1.11598411	     -3.25881330	     -0.33913800	      0.67990112	     -0.55433191	     86.14851958	      3.39761112	      2.58760324	     89.81324884	      1.56753690	     33.09845152	     -1.30876562	     -7.49999883	     93.91777956	    -13.94805306	      3.16176002	     93.30132088	      1.62841525	      5.32819894	    -11.83177686	     -7.49999883	    -15.00673546	     -2.77973786	      4.92768109	     18.37411461	    -11.20289035	     -1.05134757	    123.45133793	    103.16078129	     24.35065004	    -15.81419318	      4.62429133	    122.79914737	    105.73461644
      3.37000000	    -24.54921355	      0.91140444	     -2.89927218	     -0.33397107	      0.68967900	     -0.55387825	     84.24827771	      3.34189570	      2.49080388	     88.14593758	      1.53843683	     32.66484706	     -2.86151403	     -7.49999887	     92.23321421	    -13.39531535	      3.17060011	     91.79328267	      1.60209501	      3.70658865	    -13.63637349	     -7.49999887	    -14.43347170	     -2.66826943	      5.00876105	     16.65618771	    -10.78282304	     -2.05154450	    123.36099419	    103.44246878	     23.21924222	    -15.42456474	      4.96725151	    122.08588035	    105.86396100
      3.38000000	    -24.32215249	      0.80667896	     -2.55659607	     -0.32867211	      0.69924260	     -0.55349045	     82.41591526	      3.23425319	      2.52580742	     86.58006866	      1.51110726	     32.70476692	     -3.04708535	     -7.49999888	     90.52516900	    -12.85342893	      3.20875286	     90.40160564	      1.57780567	      3.53481566	    -13.62685104	     -7.49999888	    -13.69589060	     -2.64557316	      4.75869644	     15.04054032	    -10.39450389	     -2.16987247	    122.99766323	    103.47264159	     21.66753566	    -15.30141852	      5.20330484	    121.69413406	    105.87579493
      3.39000000	    -24.14133993	      0.68785485	     -2.27234806	     -0.32330735	      0.70886037	     -0.55302891	     80.59482206	      3.17158707	      2.52729881	     84.89974649	      1.48178011	     32.68386586	     -3.18261756	     -7.49999888	     88.83041119	    -12.36922898	      3.29065663	     88.95938012	      1.55263408	      3.39525340	    -13.63181496	     -7.49999888	    -12.82392754	     -2.59393050	      4.57595891	     13.37161050	    -10.02902904	     -2.22004457	    122.68835360	    103.48001174	     20.05128336	    -15.13164291	      5.44064417	    121.32948621	    105.87200010
      3.40000000	    -23.84194156	      0.52495333	     -1.99891079	     -0.31786247	      0.71882665	     -0.55255148	     78.59509952	      3.12339586	      2.47260717	     83.13000141	      1.45089223	     32.66015309	     -3.40263228	     -7.49999889	     87.01182968	    -11.91693174	      3.39821118	     87.47248071	      1.52668279	      3.21472740	    -13.73656490	     -7.49999889	    -11.99801375	     -2.47920854	      4.41916846	     11.72007970	     -9.61665669	     -2.34676792	    122.26164081	    103.47225342	     18.41784229	    -14.85231940	      5.64868224	    120.80703624	    105.84402710
      3.41000000	    -23.20955543	      0.22886099	     -1.75004261	     -0.31235850	      0.72954821	     -0.55201755	     76.17082058	      3.20534156	      2.31408938	     81.23725962	      1.41785766	     32.42489516	     -4.24113911	     -7.49999891	     84.89090715	    -11.55712836	      3.59636123	     85.97070382	      1.50047184	      2.53205786	    -14.49880603	     -7.49999891	    -11.50041600	     -2.22797136	      4.40028719	     10.19689559	     -9.19103603	     -2.69205731	    121.63860059	    103.49425892	     16.96108484	    -14.39857088	      5.89192038	    119.92174338	    105.79717165
      3.42000000	    -22.90989838	      0.15042185	     -1.48539125	     -0.30705910	      0.73973122	     -0.55178747	     74.16832983	      3.09499420	      2.31957032	     79.31466206	      1.38430200	     32.20383853	     -4.37505623	     -7.49999891	     83.06301125	    -11.13218919	      3.60669715	     84.37466180	      1.47261565	      2.21799954	    -14.58620180	     -7.49999891	    -10.59421289	     -2.17049596	      4.18690828	      8.64729119	     -8.83695285	     -2.70136626	    121.31213612	    103.48916094	     15.38124381	    -14.14202298	      6.26742114	    119.43048431	    105.77706637
      3.43000000	    -22.25653159	      0.01467231	     -1.18676884	     -0.30157767	      0.75052475	     -0.55173227	     71.75616473	      2.89782467	      2.15139553	     77.36168661	      1.35021615	     31.91051154	     -4.77277169	     -7.49999893	     80.89524135	    -10.71982127	      3.62999595	     82.79172482	      1.44498819	      1.50374951	    -15.00400085	     -7.49999893	    -10.03481600	     -2.05245705	      3.96657177	      7.25103678	     -8.47469720	     -2.80166605	    120.77689036	    103.47057265	     13.94678103	    -13.78494720	      6.69522650	    118.67706728	    105.71507390
      3.44000000	    -21.83958831	     -0.07188846	     -0.92386998	     -0.29622981	      0.76082621	     -0.55152564	     69.61811238	      2.73722591	      2.03681786	     75.34511029	      1.31502025	     31.65488844	     -4.86133632	     -7.49999893	     78.98941824	    -10.35885717	      3.61579968	     81.18714785	      1.41698304	      1.01894446	    -15.14704628	     -7.49999893	     -9.14730343	     -1.98017247	      3.75052621	      5.82486532	     -8.14398429	     -2.74177052	    120.45353742	    103.46015276	     12.43265741	    -13.45705748	      7.09300236	    118.10624946	    105.65410147
